<svg xmlns="http://www.w3.org/2000/svg" width="500" height="500" style="width:100%;height:100%;transform:translate3d(0,0,0);content-visibility:visible" viewBox="0 0 500 500"><defs><clipPath id="a"><path d="M0 0h500v500H0z"/></clipPath><clipPath id="e"><path d="M0 0h500v500H0z"/></clipPath><clipPath id="d"><path d="M0 0h500v500H0z"/></clipPath><clipPath id="c"><path d="M0 0h500v500H0z"/></clipPath><clipPath id="b"><path d="M0 0h500v500H0z"/></clipPath></defs><g clip-path="url(#a)"><g clip-path="url(#b)" style="display:none"><g class="primary design" style="display:none"><path class="primary"/></g><g fill="#fff" class="primary design" style="display:none"><path class="primary"/><path class="primary"/></g><g class="primary design" style="display:none"><path class="primary"/><path class="primary"/></g><g class="primary design" style="display:none"><path class="primary"/><path class="primary"/></g></g><g clip-path="url(#c)" style="display:none"><g class="primary design" style="display:none"><path fill="none" class="primary"/><path class="primary"/><path fill="none" class="primary"/></g><g class="primary design" style="display:none"><path class="primary"/><path class="primary"/></g></g><g clip-path="url(#d)" style="display:block"><g class="primary design" style="display:none"><path class="primary"/></g><g fill="none" class="primary design" style="display:none"><path class="primary"/><path class="primary"/></g><g class="primary design" style="display:none"><path class="primary"/><path class="primary"/></g><g class="primary design" style="display:block"><path fill="#fff" d="M291.713 458.333h-83.334c-11.458 0-20.833-9.375-20.833-20.833 0-11.458 9.375-20.833 20.833-20.833h83.334c11.458 0 20.833 9.375 20.833 20.833 0 11.458-9.375 20.833-20.833 20.833zm33.125-150.625c-7.5 4.583-12.292 13.541-12.292 23.333 0 24.583-18.333 43.959-41.666 43.959h-41.667c-22.917 0-41.667-18.75-41.667-41.667 0-11.458-4.792-21.041-12.5-25.833-42.917-26.25-68.541-72.084-68.541-122.292 0-43.542 19.375-84.166 53.333-111.666C193.588 46.25 237.963 35.833 281.296 45c54.583 11.667 98.542 56.25 109.375 111.042 11.875 60.417-13.958 119.999-65.833 151.666z" class="primary"/></g></g><g clip-path="url(#e)" style="display:none"><g class="primary design" style="display:none"><path class="primary"/></g><g class="primary design" style="display:none"><path fill="#fff" class="primary"/></g><g class="primary design" style="display:none"><path fill="#fff" class="primary"/></g><g class="primary design" style="display:none"><path class="primary"/><path class="primary"/><path fill="#fff" class="primary"/></g><g class="primary design" style="display:none"><path class="primary"/><path class="primary"/></g></g></g></svg>