<?xml version="1.0" encoding="utf-8"?><!-- Uploaded to: SVG Repo, www.svgrepo.com, Generator: SVG Repo Mixer Tools -->
<svg fill="#fff" width="800px" height="800px"  viewBox="0 0 512 512" id="icons" xmlns="http://www.w3.org/2000/svg">
    
    
    
    <path d="M88,176a14.67,14.67,0,0,1-13.69-9.4L57.45,122.76a7.28,7.28,0,0,0-4.21-4.21L9.4,101.69a14.67,14.67,0,0,1,0-27.38L53.24,57.45a7.31,7.31,0,0,0,4.21-4.21L74.16,9.79A15,15,0,0,1,86.23.11,14.67,14.67,0,0,1,101.69,9.4l16.86,43.84a7.31,7.31,0,0,0,4.21,4.21L166.6,74.31a14.67,14.67,0,0,1,0,27.38l-43.84,16.86a7.28,7.28,0,0,0-4.21,4.21L101.69,166.6A14.67,14.67,0,0,1,88,176Z"/>
        
       
            
            </svg>
